<svg id="Layer_1" data-name="Layer 1" xmlns="http://www.w3.org/2000/svg" viewBox="0 0 128 128"><title>DOWNLOAD</title><path d="M117.173,78.583H105.006a1.75,1.75,0,0,0-1.75,1.75v31.98H24.744V80.333a1.75,1.75,0,0,0-1.75-1.75H10.827a1.75,1.75,0,0,0-1.75,1.75v45.9a1.75,1.75,0,0,0,1.75,1.75H117.173a1.75,1.75,0,0,0,1.75-1.75v-45.9A1.75,1.75,0,0,0,117.173,78.583Zm-1.75,45.9H12.577v-42.4h8.667v31.98a1.75,1.75,0,0,0,1.75,1.75h82.013a1.75,1.75,0,0,0,1.75-1.75V82.083h8.667Z"/><path d="M62.763,90.018a1.771,1.771,0,0,0,2.475,0L97.764,57.49a1.771,1.771,0,0,0,0-2.475l-8.6-8.6a1.749,1.749,0,0,0-2.475,0L71.833,61.266V1.73a1.75,1.75,0,0,0-1.75-1.75H57.917a1.75,1.75,0,0,0-1.75,1.75V61.266L41.313,46.413a1.749,1.749,0,0,0-2.475,0l-8.6,8.6a1.771,1.771,0,0,0,0,2.475ZM40.076,50.125l16.6,16.6a1.75,1.75,0,0,0,2.987-1.237V3.48h8.667V65.49a1.75,1.75,0,0,0,2.987,1.237l16.6-16.6,6.128,6.128L64,86.306,33.948,56.253Z"/></svg>